<svg width="23" height="22" viewBox="0 0 23 22" fill="none" xmlns="http://www.w3.org/2000/svg">
<path d="M22.08 0H0.92C0.411125 0 0 0.39325 0 0.88V21.12C0 21.6068 0.411125 22 0.92 22H22.08C22.5889 22 23 21.6068 23 21.12V0.88C23 0.39325 22.5889 0 22.08 0ZM19.4235 6.42125H17.5864C16.146 6.42125 15.8671 7.07575 15.8671 8.03825V10.1585H19.3056L18.8571 13.4777H15.8671V22H12.282V13.4805H9.28337V10.1585H12.282V7.711C12.282 4.87025 14.0961 3.322 16.7469 3.322C18.0176 3.322 19.1073 3.41275 19.4264 3.454V6.42125H19.4235Z" fill="#F8F3F0"/>
</svg>
