<svg width="21" height="22" viewBox="0 0 21 22" fill="none" xmlns="http://www.w3.org/2000/svg">
<path d="M10.5004 6.09914C9.27881 6.12241 8.11475 6.64915 7.25869 7.56601C6.40263 8.48287 5.92299 9.71656 5.92299 11.0016C5.92299 12.2867 6.40263 13.5203 7.25869 14.4372C8.11475 15.3541 9.27881 15.8808 10.5004 15.9041C11.722 15.8808 12.886 15.3541 13.7421 14.4372C14.5981 13.5203 15.0778 12.2867 15.0778 11.0016C15.0778 9.71656 14.5981 8.48287 13.7421 7.56601C12.886 6.64915 11.722 6.12241 10.5004 6.09914ZM10.5004 14.6045C9.5919 14.6045 8.72062 14.2249 8.07822 13.5492C7.43583 12.8736 7.07493 11.9571 7.07493 11.0016C7.07493 10.0461 7.43583 9.12967 8.07822 8.454C8.72062 7.77833 9.5919 7.39874 10.5004 7.39874C11.4089 7.39874 12.2801 7.77833 12.9225 8.454C13.5649 9.12967 13.9258 10.0461 13.9258 11.0016C13.9258 11.9571 13.5649 12.8736 12.9225 13.5492C12.2801 14.2249 11.4089 14.6045 10.5004 14.6045ZM17.0577 0H3.94233C3.42451 0.0001056 2.91179 0.107484 2.43343 0.316004C1.95507 0.524523 1.52044 0.830101 1.15436 1.21529C0.788285 1.60048 0.497924 2.05773 0.299857 2.56095C0.101791 3.06417 -0.000100346 3.60349 7.41543e-08 4.14812V17.8535C7.41543e-08 20.1455 1.76625 22 3.94233 22H17.0577C19.2368 22 21 20.1423 21 17.8543V4.14973C21 1.85773 19.236 0 17.0577 0ZM15.2685 2.47215C15.2685 1.9856 15.6431 1.58993 16.1073 1.58993H18.5693C19.0311 1.58993 19.4073 1.98399 19.4073 2.47215V5.06171C19.4073 5.54745 19.0327 5.94312 18.5678 5.94312H16.1057C15.6447 5.94312 15.2677 5.54906 15.2677 5.0609V2.47134L15.2685 2.47215ZM20.162 17.8543C20.162 19.6541 18.7704 21.1194 17.0577 21.1194H3.94233C3.11926 21.1185 2.33014 20.7743 1.74814 20.1621C1.16614 19.55 0.838822 18.72 0.838012 17.8543V6.88405H1.47034C1.54833 6.48194 1.88629 6.17795 2.2923 6.17795H4.92103C5.32627 6.17795 5.66576 6.48114 5.74222 6.88324H6.8876C7.83725 5.96081 9.10497 5.39626 10.5004 5.39626C11.8958 5.39626 13.1612 5.9592 14.1116 6.88163H20.1612V17.8535H20.1628L20.162 17.8543Z" fill="#F8F3F0"/>
</svg>
