<svg width="40" height="40" viewBox="0 0 40 40" fill="none" xmlns="http://www.w3.org/2000/svg">
<path d="M20.0007 11.0893C17.6739 11.1317 15.4567 12.0894 13.8261 13.7564C12.1955 15.4234 11.2819 17.6665 11.2819 20.0029C11.2819 22.3394 12.1955 24.5825 13.8261 26.2495C15.4567 27.9165 17.6739 28.8742 20.0007 28.9165C22.3275 28.8742 24.5448 27.9165 26.1754 26.2495C27.806 24.5825 28.7196 22.3394 28.7196 20.0029C28.7196 17.6665 27.806 15.4234 26.1754 13.7564C24.5448 12.0894 22.3275 11.1317 20.0007 11.0893ZM20.0007 26.5536C18.2703 26.5536 16.6107 25.8634 15.3871 24.6349C14.1635 23.4065 13.4761 21.7403 13.4761 20.0029C13.4761 18.2656 14.1635 16.5994 15.3871 15.3709C16.6107 14.1424 18.2703 13.4523 20.0007 13.4523C21.7312 13.4523 23.3908 14.1424 24.6144 15.3709C25.838 16.5994 26.5254 18.2656 26.5254 20.0029C26.5254 21.7403 25.838 23.4065 24.6144 24.6349C23.3908 25.8634 21.7312 26.5536 20.0007 26.5536ZM32.4908 0H7.50919C6.52288 0.000192 5.54626 0.195425 4.6351 0.574552C3.72394 0.953679 2.89608 1.50927 2.19879 2.20962C1.5015 2.90996 0.948426 3.74134 0.571157 4.65627C0.193888 5.57121 -0.000191134 6.5518 1.41246e-07 7.54204V32.4609C1.41246e-07 36.6282 3.36428 40 7.50919 40H32.4908C36.6415 40 40 36.6223 40 32.4623V7.54496C40 3.37769 36.6401 0 32.4908 0ZM29.0828 4.49481C29.0828 3.61018 29.7965 2.89077 30.6805 2.89077H35.3701C36.2498 2.89077 36.9663 3.60725 36.9663 4.49481V9.2031C36.9663 10.0863 36.2527 10.8057 35.3672 10.8057H30.6776C29.7994 10.8057 29.0814 10.0892 29.0814 9.20164V4.49335L29.0828 4.49481ZM38.4038 32.4623C38.4038 35.7348 35.7531 38.3989 32.4908 38.3989H7.50919C5.94145 38.3973 4.43835 37.7714 3.32979 36.6584C2.22122 35.5454 1.59776 34.0363 1.59621 32.4623V12.5164H2.80066C2.94921 11.7853 3.59294 11.2326 4.36628 11.2326H9.37339C10.1453 11.2326 10.7919 11.7839 10.9376 12.515H13.1192C14.9281 10.8378 17.3428 9.81138 20.0007 9.81138C22.6587 9.81138 25.069 10.8349 26.8793 12.5121H38.4023V32.4609H38.4052L38.4038 32.4623Z" fill="#F8F3F0"/>
</svg>
