<svg width="17" height="16" viewBox="0 0 17 16" fill="none" xmlns="http://www.w3.org/2000/svg">
<path d="M13.4982 0C14.1611 0 14.7969 0.263402 15.2657 0.73226C15.7345 1.20112 15.9978 1.83703 15.9978 2.50009V6.13322C15.6748 6.03108 15.3364 5.98673 14.998 6.00222V3.96115L8.25288 7.93129C8.18912 7.96874 8.11784 7.99157 8.04418 7.99814C7.97053 8.00471 7.89633 7.99486 7.82694 7.96929L7.74495 7.93129L0.999865 3.96315V10.5004C0.999865 10.8982 1.15788 11.2798 1.43915 11.5611C1.72041 11.8424 2.10189 12.0004 2.49966 12.0004H7.98292C7.75595 12.3005 7.58297 12.6395 7.47299 13.0005H2.49966C1.83671 13.0005 1.20091 12.7371 0.732134 12.2682C0.263356 11.7994 0 11.1635 0 10.5004V2.50009C0 1.83703 0.263356 1.20112 0.732134 0.73226C1.20091 0.263402 1.83671 0 2.49966 0H13.4982ZM13.4982 1.00004H2.49966C2.10189 1.00004 1.72041 1.15808 1.43915 1.43939C1.15788 1.72071 0.999865 2.10225 0.999865 2.50009V2.8021L7.99892 6.92025L14.998 2.8011V2.50009C14.998 2.10225 14.84 1.72071 14.5587 1.43939C14.2774 1.15808 13.8959 1.00004 13.4982 1.00004ZM8.97879 12.3765L13.8081 7.54628C13.9818 7.37266 14.1881 7.23497 14.415 7.14106C14.6419 7.04715 14.8851 6.99887 15.1307 6.99896C15.3762 6.99905 15.6194 7.04752 15.8462 7.1416C16.0731 7.23568 16.2792 7.37353 16.4528 7.54728C16.6264 7.72102 16.764 7.92726 16.8579 8.15422C16.9518 8.38118 17.0001 8.62441 17 8.87003C16.9999 9.11565 16.9514 9.35885 16.8574 9.58574C16.7633 9.81262 16.6255 10.0188 16.4518 10.1924L11.6224 15.0216C11.3411 15.3031 10.9886 15.5029 10.6026 15.5996L9.10477 15.9736C8.95584 16.0107 8.79984 16.0087 8.65193 15.9677C8.50401 15.9267 8.36922 15.8481 8.26064 15.7396C8.15205 15.6311 8.07338 15.4964 8.03225 15.3485C7.99112 15.2006 7.98894 15.0445 8.02592 14.8955L8.40086 13.3975C8.49676 13.0111 8.69663 12.6583 8.97879 12.3775V12.3765Z" fill="#F8F3F0"/>
</svg>
