<svg width="35" height="32" viewBox="0 0 35 32" fill="none" xmlns="http://www.w3.org/2000/svg">
<path d="M27.7904 0C29.1553 0 30.4643 0.526804 31.4294 1.46452C32.3945 2.40224 32.9367 3.67405 32.9367 5.00018V12.2665C32.2717 12.0622 31.5749 11.9735 30.8782 12.0044V7.92229L16.9912 15.8626C16.8599 15.9375 16.7132 15.9831 16.5615 15.9963C16.4099 16.0094 16.2572 15.9897 16.1143 15.9386L15.9455 15.8626L2.05855 7.92629V21.0008C2.05855 21.7964 2.38387 22.5595 2.96295 23.1222C3.54202 23.6848 4.32742 24.0009 5.14636 24.0009H16.4354C15.9681 24.6009 15.612 25.2789 15.3856 26.001H5.14636C3.78146 26.001 2.47247 25.4742 1.50733 24.5364C0.542205 23.5987 0 22.3269 0 21.0008V5.00018C0 3.67405 0.542205 2.40224 1.50733 1.46452C2.47247 0.526804 3.78146 0 5.14636 0H27.7904V0ZM27.7904 2.00007H5.14636C4.32742 2.00007 3.54202 2.31616 2.96295 2.87879C2.38387 3.44142 2.05855 4.2045 2.05855 5.00018V5.60421L16.4684 13.8405L30.8782 5.60221V5.00018C30.8782 4.2045 30.5529 3.44142 29.9738 2.87879C29.3947 2.31616 28.6093 2.00007 27.7904 2.00007V2.00007ZM18.4857 24.7529L28.4285 15.0926C28.7862 14.7453 29.2107 14.4699 29.6779 14.2821C30.1451 14.0943 30.6458 13.9977 31.1514 13.9979C31.657 13.9981 32.1576 14.095 32.6246 14.2832C33.0917 14.4714 33.516 14.7471 33.8734 15.0946C34.2307 15.442 34.5142 15.8545 34.7075 16.3084C34.9008 16.7624 35.0002 17.2488 35 17.7401C34.9998 18.2313 34.9 18.7177 34.7064 19.1715C34.5127 19.6252 34.229 20.0375 33.8713 20.3847L23.9285 30.0431C23.3493 30.6061 22.6236 31.0057 21.8288 31.1991L18.7451 31.9472C18.4385 32.0214 18.1173 32.0173 17.8128 31.9353C17.5083 31.8533 17.2307 31.6962 17.0072 31.4792C16.7836 31.2622 16.6217 30.9927 16.537 30.6969C16.4523 30.4011 16.4478 30.0891 16.5239 29.7911L17.2959 26.795C17.4933 26.0222 17.9048 25.3166 18.4857 24.7549V24.7529Z" fill="#F8F3F0"/>
</svg>
