<svg width="20" height="20" viewBox="0 0 20 20" fill="none" xmlns="http://www.w3.org/2000/svg">
<path d="M18.1274 13.0537C17.0975 12.9265 16.0749 12.7463 15.0636 12.5136C14.8167 12.4311 14.5527 12.4137 14.2971 12.4631C14.0415 12.5125 13.803 12.6271 13.6047 12.7958C13.3469 13.0585 12.6028 13.7932 11.8296 14.5522C9.05915 13.1897 6.8186 10.9464 5.45882 8.17368C6.21261 7.40008 6.91777 6.66054 7.2047 6.40267C7.3733 6.20423 7.48785 5.96561 7.53726 5.70991C7.58668 5.4542 7.56928 5.19006 7.48677 4.94305C7.25393 3.92971 7.07375 2.90498 6.94695 1.87298C6.93337 1.74157 6.89318 1.61429 6.82883 1.49892C6.76448 1.38355 6.67732 1.28249 6.57266 1.20192C6.46801 1.12134 6.34805 1.06293 6.22009 1.03025C6.09214 0.997562 5.95888 0.991288 5.82842 1.01181H1.68499C1.51395 1.02725 1.35385 1.10257 1.23287 1.2245C1.11189 1.34643 1.03778 1.50715 1.02359 1.67837C0.756117 5.41986 2.84242 9.42408 3.26552 10.1928V10.222L3.32388 10.3339C4.83844 12.9619 7.0192 15.1437 9.64602 16.6589V16.6589L9.86 16.7806C10.8326 17.2963 14.6989 19.2425 18.3122 18.9749C18.4851 18.9629 18.648 18.8897 18.7719 18.7685C18.8958 18.6472 18.9724 18.4858 18.9882 18.3132V14.1727C19.0087 14.0422 19.0024 13.9089 18.9698 13.7809C18.9371 13.6529 18.8787 13.5328 18.7982 13.4281C18.7176 13.3234 18.6166 13.2362 18.5013 13.1719C18.386 13.1075 18.2588 13.0673 18.1274 13.0537Z" stroke="#F8F3F0" stroke-linecap="round" stroke-linejoin="round"/>
</svg>
