<svg width="55" height="39" viewBox="0 0 55 39" fill="none" xmlns="http://www.w3.org/2000/svg">
<path d="M54.9398 16.6C54.9398 12.2 53.6065 8.39999 50.9398 5.19999C48.2732 1.99999 44.6732 0.39999 40.1398 0.39999C37.0732 0.39999 34.3398 1.26666 31.9398 2.99999C29.6732 4.73333 28.5398 7.26666 28.5398 10.6C28.5398 12.6 29.2065 14.5333 30.5398 16.4C32.0065 18.1333 34.0732 19 36.7398 19C37.8065 19 38.8732 18.8667 39.9398 18.6C41.1398 18.2 42.3398 17.5333 43.5398 16.6C44.3398 17.9333 44.7398 19.8667 44.7398 22.4C44.7398 26.6667 43.5398 29.8667 41.1398 32C38.7398 34 35.2065 35.4667 30.5398 36.4V38.4C33.7398 38.4 36.8065 37.8667 39.7398 36.8C42.8065 35.7333 45.4065 34.2667 47.5398 32.4C49.8065 30.5333 51.6065 28.2667 52.9398 25.6C54.2732 22.9333 54.9398 19.9333 54.9398 16.6ZM26.5398 16.6C26.5398 12.2 25.2065 8.39999 22.5398 5.19999C19.8732 1.99999 16.2732 0.39999 11.7398 0.39999C8.67318 0.39999 5.93984 1.26666 3.53984 2.99999C1.27318 4.73333 0.139844 7.26666 0.139844 10.6C0.139844 12.6 0.806511 14.5333 2.13984 16.4C3.60651 18.1333 5.67318 19 8.33984 19C9.40651 19 10.4732 18.8667 11.5398 18.6C12.7398 18.2 13.9398 17.5333 15.1398 16.6C15.9398 17.8 16.3398 19.7333 16.3398 22.4C16.3398 26.6667 15.1398 29.8667 12.7398 32C10.3398 34 6.80651 35.4667 2.13984 36.4V38.4C5.33984 38.4 8.40651 37.8667 11.3398 36.8C14.4065 35.7333 17.0065 34.2667 19.1398 32.4C21.4065 30.5333 23.2065 28.2667 24.5398 25.6C25.8732 22.9333 26.5398 19.9333 26.5398 16.6Z" fill="#F7C604"/>
</svg>
