<svg width="36" height="37" viewBox="0 0 36 37" fill="none" xmlns="http://www.w3.org/2000/svg">
<path d="M33.3518 24.4377C31.4065 24.1905 29.4748 23.84 27.5646 23.3876C27.0982 23.2271 26.5995 23.1932 26.1167 23.2894C25.634 23.3855 25.1834 23.6083 24.8088 23.9363C24.3219 24.4472 22.9165 25.8757 21.4559 27.3515C16.2228 24.7022 11.9907 20.3403 9.42221 14.9488C10.846 13.4446 12.178 12.0066 12.72 11.5052C13.0385 11.1193 13.2548 10.6554 13.3482 10.1582C13.4415 9.66094 13.4086 9.14734 13.2528 8.66704C12.813 6.69667 12.4726 4.70413 12.2331 2.69747C12.2075 2.44193 12.1316 2.19446 12.01 1.97012C11.8885 1.74579 11.7238 1.54929 11.5261 1.39262C11.3285 1.23594 11.1019 1.12237 10.8602 1.05881C10.6185 0.99526 10.3668 0.98306 10.1203 1.02296H2.29386C1.9708 1.053 1.66839 1.19945 1.43987 1.43653C1.21135 1.67361 1.07136 1.98612 1.04456 2.31905C0.539333 9.59417 4.48013 17.3802 5.27932 18.8749V18.9317L5.38955 19.1493C8.25039 24.2593 12.3696 28.5016 17.3314 31.4479V31.4479L17.7356 31.6844C19.5728 32.6873 26.8756 36.4715 33.7009 35.9511C34.0274 35.9278 34.3352 35.7855 34.5692 35.5498C34.8031 35.314 34.9479 35.0002 34.9777 34.6645V26.6136C35.0164 26.3598 35.0046 26.1006 34.9429 25.8517C34.8812 25.6028 34.7709 25.3694 34.6188 25.1658C34.4666 24.9622 34.2759 24.7927 34.058 24.6675C33.8402 24.5423 33.5999 24.4641 33.3518 24.4377Z" stroke="#F8F3F0" stroke-linecap="round" stroke-linejoin="round"/>
</svg>
