<svg width="23" height="22" viewBox="0 0 23 22" fill="none" xmlns="http://www.w3.org/2000/svg">
<path d="M21.625 6.66667V15.3333C21.625 16.7699 21.0324 18.1477 19.9775 19.1635C18.9226 20.1793 17.4918 20.75 16 20.75H7C5.50816 20.75 4.07742 20.1793 3.02252 19.1635C1.96763 18.1477 1.375 16.7699 1.375 15.3333V6.66667C1.375 5.23008 1.96763 3.85233 3.02252 2.8365C4.07742 1.82068 5.50816 1.25 7 1.25H16C17.4918 1.25 18.9226 1.82068 19.9775 2.8365C21.0324 3.85233 21.625 5.23008 21.625 6.66667Z" stroke="#F8F3F0" stroke-width="1.5" stroke-linecap="round" stroke-linejoin="round"/>
<path d="M9.25 11C8.58249 11 7.92997 11.1906 7.37495 11.5477C6.81994 11.9048 6.38735 12.4124 6.13191 13.0063C5.87646 13.6001 5.80963 14.2536 5.93985 14.884C6.07008 15.5145 6.39151 16.0936 6.86352 16.5481C7.33552 17.0026 7.93689 17.3122 8.59157 17.4376C9.24626 17.563 9.92486 17.4986 10.5416 17.2526C11.1583 17.0066 11.6854 16.5901 12.0562 16.0556C12.4271 15.5211 12.625 14.8928 12.625 14.25V4.5C12.9996 5.58333 14.425 7.75 17.125 7.75" stroke="#F8F3F0" stroke-width="1.5" stroke-linecap="round" stroke-linejoin="round"/>
</svg>
