<svg width="45" height="47" viewBox="0 0 45 47" fill="none" xmlns="http://www.w3.org/2000/svg">
<path d="M39.375 15.6667V31.3333C39.375 33.9302 38.3873 36.4208 36.6291 38.2571C34.871 40.0934 32.4864 41.125 30 41.125H15C12.5136 41.125 10.129 40.0934 8.37087 38.2571C6.61272 36.4208 5.625 33.9302 5.625 31.3333V15.6667C5.625 13.0698 6.61272 10.5792 8.37087 8.74291C10.129 6.90662 12.5136 5.875 15 5.875H30C32.4864 5.875 34.871 6.90662 36.6291 8.74291C38.3873 10.5792 39.375 13.0698 39.375 15.6667Z" stroke="#F8F3F0" stroke-width="1.5" stroke-linecap="round" stroke-linejoin="round"/>
<path d="M18.75 23.5C17.6375 23.5 16.5499 23.8446 15.6249 24.4901C14.6999 25.1357 13.9789 26.0532 13.5532 27.1267C13.1274 28.2003 13.016 29.3815 13.2331 30.5212C13.4501 31.6608 13.9859 32.7076 14.7725 33.5293C15.5592 34.3509 16.5615 34.9104 17.6526 35.1371C18.7438 35.3638 19.8748 35.2475 20.9026 34.8028C21.9304 34.3581 22.8089 33.6051 23.427 32.639C24.0451 31.6728 24.375 30.537 24.375 29.375V11.75C24.9994 13.7083 27.375 17.625 31.875 17.625" stroke="#F8F3F0" stroke-width="1.5" stroke-linecap="round" stroke-linejoin="round"/>
</svg>
